<svg width="199" height="20" viewBox="0 0 199 20" fill="none" xmlns="http://www.w3.org/2000/svg">
<path d="M0.6 15H3.82V4.78L10.32 12.64H12.66L12.84 12.44L19.18 4.78V15H22.4V0.319999H18.92L11.6 9.38L4.28 0.319999H0.6V15ZM40.4828 15.02V14.96L40.0828 12.96V8.96C40.0828 6.1 37.3028 4.2 32.3228 4.2C29.5028 4.2 26.3428 5.14 25.2428 6.08L26.0028 8.4L26.0428 8.52C27.4628 7.4 30.3028 6.8 32.3228 6.8C34.8228 6.8 36.8228 7.06 36.8828 8.8H32.1628C26.8028 8.8 24.7828 10 24.7828 12.1C24.7828 14.54 26.8028 15.36 30.7428 15.36C32.9228 15.36 35.6828 14.64 36.8828 13.54V15.02H40.4828ZM31.6428 13.02C29.0228 13.02 28.2028 12.7 28.2028 11.9C28.2028 11 29.0628 10.64 31.6228 10.64H36.8828V10.82C36.8828 12.18 34.7028 13.02 31.6428 13.02ZM53.5758 5L53.5958 6.44C52.6158 5.3 50.6758 4.64 48.7158 4.64C44.7158 4.64 42.0958 6.8 42.0758 10.18C42.0558 13.44 44.7158 15.4 48.7158 15.4C50.7758 15.4 52.7358 14.92 53.7358 13.9V14.38C53.7558 15.94 52.5758 16.66 49.6158 16.88C47.5358 17.04 45.6958 16.74 43.1758 15.82V18.4C45.0758 19.06 46.9158 19.3 49.6158 19.26C54.7958 19.18 56.8758 17.72 56.8758 14.1V5H53.5758ZM49.2158 13.3C46.9558 13.3 45.4358 12.06 45.4358 10.18C45.4358 8.3 46.9558 7.04 49.2158 7.04C51.2358 7.04 52.9558 7.56 53.6358 8.34L53.6958 11.94C52.8958 12.76 51.1558 13.3 49.2158 13.3ZM70.6927 -1.19209e-06V6.48C69.8127 5.48 67.7727 4.64 65.5327 4.64C61.4127 4.64 58.6527 6.82 58.6727 10.06C58.6927 13.44 61.4127 15.6 65.5327 15.6C67.6327 15.6 69.7127 14.88 70.6927 13.68V15H74.0527V-1.19209e-06H70.6927ZM66.0527 13.2C63.7127 13.2 62.1527 11.94 62.1527 10.06C62.1527 8.18 63.7127 6.94 66.0527 6.94C68.1327 6.94 69.9727 7.5 70.6927 8.36V11.82C70.0527 12.66 68.2127 13.2 66.0527 13.2ZM78.7089 3.28C77.6289 3.28 76.9289 2.72 76.9289 1.64C76.9289 0.559999 77.6289 -1.19209e-06 78.7089 -1.19209e-06C79.7889 -1.19209e-06 80.4889 0.559999 80.4889 1.64C80.4889 2.72 79.7889 3.28 78.7089 3.28ZM77.0289 5V15H80.3889V5H77.0289ZM98.7277 10.86C98.7277 7 96.2677 4.16 90.6077 4.16C85.6477 4.16 82.6477 6.8 82.6477 10.2C82.6477 13.4 85.9677 15.48 90.9877 15.48C94.2077 15.48 96.1277 15.02 97.5277 14.22L96.5677 11.98C95.6477 12.62 93.2677 13 90.9877 13C88.2077 13 86.1477 12.54 86.1477 10.86H98.7277ZM86.1877 8.98C86.1877 7.54 88.2077 6.82 90.6877 6.82C93.1877 6.82 95.2277 7.52 95.2277 8.98H86.1877ZM100.826 -1.19209e-06V15H104.186V-1.19209e-06H100.826ZM113.746 0.319999V15H130.066V12.2H117.226V0.319999H113.746ZM139.793 15.6C144.473 15.6 147.953 13.38 147.953 10.02C147.953 6.48 144.473 4.16 139.793 4.16C134.973 4.16 131.633 6.48 131.633 10.02C131.633 13.38 134.993 15.6 139.793 15.6ZM139.793 13.22C136.993 13.22 135.133 11.94 135.133 10.02C135.133 8.06 136.993 6.76 139.793 6.76C142.593 6.76 144.453 8.06 144.453 10.02C144.453 11.94 142.593 13.22 139.793 13.22ZM165.299 10.18C165.279 6.8 162.559 4.64 158.439 4.64C156.339 4.64 154.259 5.36 153.279 6.56V5H149.919V19H153.279V13.76C154.159 14.76 156.199 15.6 158.439 15.6C162.559 15.6 165.319 13.42 165.299 10.18ZM157.919 13.3C155.899 13.3 153.999 12.74 153.279 11.88V8.42C153.919 7.58 155.819 7.04 157.919 7.04C160.259 7.04 161.819 8.3 161.819 10.18C161.819 12.06 160.259 13.3 157.919 13.3ZM182.84 10.86C182.84 7 180.38 4.16 174.72 4.16C169.76 4.16 166.76 6.8 166.76 10.2C166.76 13.4 170.08 15.48 175.1 15.48C178.32 15.48 180.24 15.02 181.64 14.22L180.68 11.98C179.76 12.62 177.38 13 175.1 13C172.32 13 170.26 12.54 170.26 10.86H182.84ZM170.3 8.98C170.3 7.54 172.32 6.82 174.8 6.82C177.3 6.82 179.34 7.52 179.34 8.98H170.3ZM198.953 15V12.58H189.753L198.813 6.66V4.62H184.233V7.04H193.433L184.373 12.96V15H198.953Z" fill="black"/>
</svg>
