<?xml version="1.0" encoding="utf-8"?>
<!-- Generator: Adobe Illustrator 24.1.0, SVG Export Plug-In . SVG Version: 6.00 Build 0)  -->
<svg version="1.1" id="Layer_1" xmlns="http://www.w3.org/2000/svg" xmlns:xlink="http://www.w3.org/1999/xlink" x="0px" y="0px"
	 viewBox="0 0 35 35" style="enable-background:new 0 0 35 35;" xml:space="preserve">
<g>
	<g>
		<path d="M7.2,1.4c3.3,3.3,6.4,6.4,9.6,9.6l0.7,0.7l0.7-0.7c3.3-3.3,6.4-6.4,9.6-9.6L28,1.6l5.6,5.6c-2,2.1-4.1,4.1-6.1,6.2
			c-1.1,1.1-2.3,2.3-3.4,3.4l-0.7,0.7l0.7,0.7c2.3,2.3,4.6,4.6,6.9,6.9c0.9,0.9,1.8,1.8,2.7,2.7l-2.9,2.9l-2.9,2.9
			c-0.9-0.9-1.8-1.8-2.7-2.7c-2.2-2.3-4.6-4.6-6.9-6.9l-0.7-0.7L16.8,24c-1.1,1.1-2.3,2.3-3.4,3.4c-2,2-4.1,4.1-6.2,6.1l-4.1-4.1
			l-1.7-1.7c3.2-3.2,6.5-6.4,9.6-9.6l0.7-0.7L11,16.8c-3.2-3.2-6.5-6.4-9.6-9.6L7.2,1.4 M27.8,0C24.4,3.5,21,6.9,17.5,10.3
			C14.1,6.9,10.7,3.5,7.2,0C4.8,2.4,2.4,4.8,0,7.2c3.5,3.5,6.9,6.9,10.3,10.3C6.9,21,3.5,24.4,0,27.8c2.4,2.4,4.8,4.8,7.2,7.2
			c3.5-3.4,6.9-6.9,10.3-10.3c3.5,3.4,6.9,6.9,10.3,10.3c2.4-2.4,4.8-4.8,7.2-7.2c-3.4-3.4-6.9-6.8-10.3-10.3
			c3.4-3.4,6.9-6.8,10.3-10.3C32.6,4.8,30.2,2.4,27.8,0L27.8,0z"/>
	</g>
</g>
</svg>
