<?xml version="1.0" encoding="utf-8"?>
<!-- Generator: Adobe Illustrator 24.1.0, SVG Export Plug-In . SVG Version: 6.00 Build 0)  -->
<svg version="1.1" id="Layer_1" xmlns="http://www.w3.org/2000/svg" xmlns:xlink="http://www.w3.org/1999/xlink" x="0px" y="0px"
	 viewBox="0 0 35 35" style="enable-background:new 0 0 35 35;" xml:space="preserve">
<style type="text/css">
	.st0{fill-rule:evenodd;clip-rule:evenodd;}
</style>
<g>
	<g>
		<path class="st0" d="M0,7.2C2.4,4.8,4.8,2.4,7.2,0c3.5,3.5,6.9,6.9,10.3,10.3C21,6.9,24.4,3.5,27.8,0c2.4,2.4,4.8,4.8,7.2,7.2
			c-3.4,3.5-6.9,6.9-10.3,10.3c3.4,3.5,6.9,6.9,10.3,10.3c-2.4,2.4-4.8,4.8-7.2,7.2c-3.4-3.4-6.8-6.9-10.3-10.3
			c-3.4,3.4-6.8,6.9-10.3,10.3c-2.4-2.4-4.8-4.8-7.2-7.2c3.5-3.4,6.9-6.8,10.3-10.3C6.9,14.1,3.5,10.7,0,7.2z"/>
	</g>
</g>
</svg>
