<?xml version="1.0" encoding="utf-8"?>
<!-- Generator: Adobe Illustrator 24.1.2, SVG Export Plug-In . SVG Version: 6.00 Build 0)  -->
<svg version="1.1" id="Layer_1" xmlns="http://www.w3.org/2000/svg" xmlns:xlink="http://www.w3.org/1999/xlink" x="0px" y="0px"
	 viewBox="0 0 150 150" style="enable-background:new 0 0 150 150;" xml:space="preserve">
<g>
	<path d="M81.5,24.4c0.2,0.2,0.3,0.4,0.2,0.7c0,0.2-0.1,0.5-0.2,0.8l-4.3,8.8l-0.2,0.1L73.8,24l1.3,0.1l2.7,9l3.6-7.2
		c0.1-0.2,0.2-0.5,0.2-0.8c0-0.3,0-0.5-0.2-0.6L81.5,24.4z"/>
	<path d="M83.4,35.5c-0.4-0.1-0.7-0.2-0.9-0.4c-0.2-0.2-0.2-0.4-0.2-0.6l0-0.3l1.3-6.3l1,0.2l-1.3,6.3c-0.1,0.3,0,0.5,0,0.7
		c0.1,0.2,0.2,0.3,0.3,0.3l0.2,0.1l0.5,0.1l0,0.1L83.4,35.5z M84,26.2c-0.1-0.1-0.1-0.3-0.1-0.5c0-0.2,0.1-0.3,0.3-0.4
		c0.1-0.1,0.3-0.1,0.5-0.1s0.3,0.1,0.4,0.3c0.1,0.1,0.1,0.3,0.1,0.5c0,0.2-0.1,0.3-0.3,0.4c-0.1,0.1-0.3,0.1-0.5,0.1
		C84.3,26.5,84.1,26.4,84,26.2z"/>
	<path d="M91.4,30.5c-0.1-0.2-0.3-0.4-0.6-0.6c-0.3-0.2-0.6-0.3-0.7-0.4c-0.2-0.1-0.3-0.1-0.3-0.1c-0.5-0.2-0.9-0.1-1.2,0
		c-0.3,0.2-0.5,0.4-0.6,0.7c-0.1,0.3-0.1,0.6,0,0.9c0.1,0.3,0.3,0.5,0.6,0.7c0.3,0.2,0.5,0.5,0.8,0.7c0.3,0.3,0.6,0.5,0.8,0.8
		c0.2,0.3,0.4,0.6,0.5,0.9c0.1,0.4,0.1,0.8-0.1,1.2s-0.4,0.8-0.8,1c-0.4,0.2-0.8,0.3-1.3,0.3c-0.4,0-0.9-0.1-1.3-0.2
		c-1-0.3-1.6-0.8-2-1.3l0.1-0.1c0.1,0.2,0.4,0.5,0.7,0.7c0.3,0.2,0.7,0.4,1,0.5c0.6,0.2,1.1,0.2,1.5,0c0.5-0.2,0.8-0.5,0.9-1
		c0.1-0.5,0.1-0.9-0.1-1.2c-0.2-0.4-0.4-0.7-0.8-1c-0.3-0.3-0.7-0.6-1-0.9c-0.3-0.3-0.6-0.6-0.8-1c-0.2-0.4-0.2-0.7-0.1-1.1
		c0.1-0.4,0.3-0.6,0.5-0.8s0.5-0.3,0.8-0.3c0.5,0,1,0.1,1.5,0.2c0.8,0.3,1.4,0.6,1.8,1.1L91.4,30.5z"/>
	<path d="M92.4,36.5c-0.4,0.7-0.4,1.2-0.1,1.6c0.1,0.2,0.3,0.3,0.6,0.5c0.6,0.3,1.2,0.3,1.8,0.1c0.7-0.2,1.1-0.5,1.3-0.8l2.5-4.8
		l0.9,0.5l-3,5.7c-0.1,0.3-0.2,0.5-0.2,0.7c0,0.2,0.1,0.3,0.2,0.4l0.1,0.1l0.4,0.2L97,40.9l-0.8-0.4c-0.4-0.2-0.6-0.4-0.7-0.7
		s-0.1-0.5-0.1-0.6l0.1-0.2l0.3-0.6c-0.4,0.3-0.8,0.5-1.4,0.6c-0.6,0.1-1.1,0.1-1.6-0.2c-0.5-0.3-0.9-0.5-1.1-0.8
		c-0.3-0.3-0.4-0.5-0.5-0.7c-0.1-0.4,0-0.8,0.2-1.2l2.7-5.1l0.9,0.5L92.4,36.5z"/>
	<path d="M102.2,44.9c-0.5-0.4-0.8-0.8-0.9-1.2c0-0.3,0-0.5,0.1-0.7l0.2-0.2c-0.9,0.4-1.8,0.3-2.7-0.4c-1-0.8-1.2-1.7-0.6-2.7
		c0.1-0.1,0.1-0.2,0.2-0.3c0.1-0.1,0.2-0.2,0.3-0.3c0.1-0.1,0.3-0.2,0.6-0.2c0.5-0.1,1.3,0.3,2.4,1c0.3,0.2,0.5,0.3,0.7,0.5
		c0.2,0.2,0.4,0.3,0.6,0.5l1.5-2c0,0,0-0.1,0.1-0.1c0.1-0.1,0.1-0.2,0.2-0.3c0-0.1,0.1-0.3,0.1-0.4c0-0.2,0-0.3-0.2-0.6
		c-0.1-0.2-0.3-0.4-0.6-0.7c-0.3-0.2-0.7-0.4-1.1-0.6c-0.5-0.2-0.8-0.3-1.1-0.4l0-0.1c1,0.2,1.8,0.6,2.5,1.2
		c0.8,0.6,1.2,1.2,1.3,1.7c0,0.4-0.1,0.7-0.3,1l-3.1,4c-0.2,0.2-0.3,0.4-0.3,0.6c0,0.2,0,0.3,0.1,0.4L102.2,44.9l0.4,0.2l-0.1,0.1
		L102.2,44.9z M99.2,42.5c0.4,0.3,0.9,0.5,1.5,0.4c0.6,0,1-0.2,1.2-0.4l1.1-1.4c-0.2-0.2-0.4-0.4-0.6-0.5c-0.2-0.2-0.4-0.3-0.7-0.5
		c-0.7-0.4-1.1-0.6-1.5-0.5c-0.3,0.1-0.6,0.3-0.9,0.6c0,0.1-0.1,0.1-0.2,0.2C98.5,41.3,98.5,42,99.2,42.5z"/>
	<path d="M104.4,47.2c-0.6-0.6-0.8-1.2-0.7-1.7c0-0.1,0.1-0.2,0.1-0.2l7.3-7.2l0.7,0.7l-7.2,7.1c-0.2,0.2-0.3,0.4-0.4,0.6
		c0,0.2,0,0.3,0.1,0.4L104.4,47.2l0.4,0.2l-0.1,0.1L104.4,47.2z"/>
	<path d="M108,51.3l-0.1-0.2l11.3-1.4l0.1,0.1l-7.2,8.6l-0.6-1.1l2.3-2.7l-2.2-3.8L108,51.3z M117.6,50.1l-5.9,0.7l2.1,3.7
		L117.6,50.1z"/>
	<path d="M119.6,59.2l0.3-0.1c-0.3-0.4-0.8-0.6-1.4-0.8c-0.6-0.2-1.2-0.2-1.6,0l-4.3,1.6l-0.4-1l7-2.6l0.4,1l-2.2,0.8
		c0.6-0.1,1.2,0,1.9,0.3c0.6,0.2,1.1,0.6,1.3,1.2l0,0.1c0.1,0.2,0.1,0.4,0,0.5c-0.1,0.2-0.2,0.3-0.4,0.4c-0.2,0.1-0.4,0.1-0.5,0
		s-0.3-0.2-0.4-0.4c-0.1-0.2-0.1-0.4,0-0.5C119.3,59.4,119.4,59.3,119.6,59.2z"/>
	<path d="M121.1,61.9l0.1,0l0.1,0.3l1.5-0.3l0.2,1l-1.5,0.3l0.5,2.2l-0.1,0l-0.5-2.2l-5.3,1.3c-0.6,0.2-1.1,0.3-1.3,0.5
		c-0.2,0.2-0.3,0.5-0.2,1c0.1,0.5,0.3,0.9,0.6,1.3l-0.1,0.1c-0.3-0.4-0.5-1-0.7-1.6c-0.1-0.6-0.1-1.1,0-1.5c0.2-0.4,0.7-0.7,1.4-0.8
		l5.3-1.3L121.1,61.9z"/>
	<path d="M115.1,69.4c-0.1-0.4,0-0.7,0.1-1c0.1-0.2,0.3-0.4,0.5-0.4l0.2-0.1l6.4-0.9l0.2,1l-6.4,0.9c-0.3,0-0.5,0.1-0.6,0.3
		s-0.2,0.3-0.2,0.4l0,0.2l0.1,0.5l-0.1,0L115.1,69.4z M124,66.9c0.1-0.1,0.2-0.2,0.4-0.2c0.2,0,0.3,0,0.5,0.1
		c0.1,0.1,0.2,0.2,0.2,0.4c0,0.2,0,0.3-0.1,0.5c-0.1,0.1-0.2,0.2-0.4,0.3c-0.2,0-0.3,0-0.5-0.1c-0.1-0.1-0.2-0.2-0.2-0.4
		C123.8,67.2,123.9,67.1,124,66.9z"/>
	<path d="M122.5,75.3c0.1-0.2,0.2-0.4,0.3-0.8c0.1-0.4,0.1-0.6,0.1-0.8c0-0.2,0-0.3,0-0.3c0-0.5-0.2-0.9-0.4-1.2
		c-0.3-0.2-0.6-0.3-0.9-0.3c-0.3,0-0.6,0.1-0.8,0.3c-0.2,0.2-0.4,0.5-0.5,0.8c-0.1,0.3-0.2,0.7-0.4,1c-0.1,0.4-0.3,0.7-0.5,1
		c-0.2,0.3-0.4,0.6-0.7,0.8c-0.3,0.2-0.7,0.3-1.2,0.4c-0.5,0-0.9-0.1-1.2-0.5c-0.3-0.3-0.6-0.7-0.7-1.1c-0.1-0.4-0.2-0.8-0.2-1.3
		c0-1,0.2-1.8,0.6-2.3l0.1,0.1c-0.2,0.2-0.3,0.5-0.4,0.9c-0.1,0.4-0.2,0.8-0.1,1.2c0,0.6,0.2,1.1,0.5,1.4c0.3,0.4,0.7,0.6,1.2,0.5
		c0.5,0,0.9-0.2,1.2-0.5c0.3-0.3,0.5-0.7,0.7-1.1c0.2-0.4,0.3-0.8,0.5-1.3c0.2-0.4,0.4-0.8,0.7-1.1c0.3-0.3,0.6-0.5,1-0.5
		c0.4,0,0.7,0.1,1,0.2c0.2,0.2,0.4,0.4,0.5,0.7c0.2,0.5,0.3,1,0.3,1.5c0,0.9-0.1,1.5-0.4,2L122.5,75.3z"/>
	<path d="M122.8,77.8l0.1,0l0,0.3l1.5,0.1l-0.1,1l-1.5-0.1l-0.2,2.3l-0.1,0l0.2-2.3l-5.4-0.5c-0.6-0.1-1.1,0-1.4,0.1
		c-0.3,0.1-0.5,0.4-0.5,0.9c0,0.5,0,0.9,0.1,1.4l-0.1,0c-0.1-0.5-0.2-1.1-0.1-1.7c0.1-0.6,0.2-1.1,0.5-1.4c0.3-0.3,0.8-0.4,1.6-0.3
		l5.4,0.5L122.8,77.8z"/>
	<path d="M124.7,89.7l-0.4,1l-5.2-1.9c0.4,0.3,0.7,0.8,0.9,1.3c0.2,0.6,0.2,1.1,0,1.7c-0.7,1.9-2.2,2.4-4.4,1.6
		c-2.5-0.9-3.3-2.6-2.4-5.1c0.3-0.7,0.7-1.5,1.3-2.4L124.7,89.7z M119.9,91.7c0.2-0.6,0.2-1.2-0.2-1.9c-0.3-0.7-0.7-1.1-1.1-1.3
		l-4.5-1.7c-0.4,0.5-0.7,1-0.9,1.4c-0.7,1.8,0.2,3.2,2.7,4.1C118.1,93.2,119.4,93,119.9,91.7z"/>
	<path d="M109.7,95.7c0.5-0.9,1.2-1.5,2.1-1.7c0.9-0.3,1.8-0.1,2.9,0.6c1.1,0.6,1.7,1.4,2,2.4c0.2,0.9,0.1,1.9-0.5,2.8
		c-0.5,0.9-1.2,1.5-2.1,1.7c-0.9,0.3-1.8,0.1-2.9-0.6c-1.1-0.6-1.7-1.4-2-2.4C109,97.6,109.1,96.7,109.7,95.7z M116,99.7
		c0.4-0.7,0.4-1.4,0.1-2.1c-0.3-0.8-1-1.5-2-2.1c-1-0.6-1.9-0.9-2.6-0.8c-0.7,0.1-1.3,0.5-1.7,1.1c-0.4,0.7-0.4,1.4-0.1,2.1
		c0.3,0.8,1,1.5,2,2.1c1,0.6,1.9,0.9,2.6,0.8C115.1,100.7,115.6,100.3,116,99.7z"/>
	<path d="M110.8,105.9l0.2,0.2c0.2-0.5,0.1-1,0-1.6c-0.2-0.6-0.4-1.1-0.8-1.4l-3.5-2.9l0.7-0.8l5.8,4.8l-0.7,0.8l-1.8-1.5
		c0.3,0.5,0.6,1.1,0.7,1.8c0.1,0.7,0,1.2-0.4,1.7l0,0c-0.1,0.2-0.3,0.2-0.5,0.3c-0.2,0-0.4,0-0.5-0.2c-0.2-0.1-0.2-0.3-0.2-0.5
		c0-0.2,0-0.4,0.2-0.5c0.1-0.2,0.3-0.2,0.5-0.3C110.5,105.7,110.7,105.7,110.8,105.9z"/>
	<path d="M99.6,107.2c0.3-0.3,0.6-0.4,0.9-0.4c0.3,0,0.5,0.1,0.6,0.2l0.2,0.2l3.1,3.5c0.5,0.6,1,0.8,1.5,0.7
		c0.2-0.1,0.5-0.2,0.7-0.4c0.5-0.4,0.7-1,0.8-1.7c0-0.7-0.1-1.2-0.3-1.5l-3.5-4l0.8-0.7l4.9,5.6l-0.8,0.7l-1.1-1.3
		c0.2,0.4,0.2,0.9,0.1,1.5c-0.1,0.6-0.4,1.1-0.8,1.4c-0.4,0.4-0.8,0.6-1.1,0.8c-0.3,0.1-0.6,0.2-0.9,0.2c-0.4-0.1-0.7-0.3-1.1-0.7
		l-3.1-3.5c-0.2-0.2-0.4-0.3-0.6-0.4c-0.2,0-0.3,0-0.4,0l-0.1,0.1l-0.3,0.3l-0.1-0.1L99.6,107.2z"/>
	<path d="M93.5,110.9c0.4-0.2,0.7-0.3,1-0.2c0.3,0.1,0.5,0.2,0.5,0.3l0.1,0.2l3,5.7l-0.9,0.5l-3-5.7c-0.1-0.3-0.3-0.4-0.5-0.5
		c-0.2-0.1-0.3-0.1-0.4-0.1l-0.2,0.1l-0.4,0.2l-0.1-0.1L93.5,110.9z M98.9,118.5c0.2,0,0.3,0.2,0.4,0.3c0.1,0.2,0.1,0.3,0.1,0.5
		c0,0.2-0.2,0.3-0.3,0.4c-0.2,0.1-0.3,0.1-0.5,0c-0.2-0.1-0.3-0.2-0.4-0.3c-0.1-0.2-0.1-0.3,0-0.5c0.1-0.2,0.2-0.3,0.3-0.4
		C98.5,118.5,98.7,118.4,98.9,118.5z"/>
	<path d="M86.4,113.9c0.4-0.1,0.7-0.2,1-0.1c0.3,0.1,0.4,0.2,0.5,0.4l0.1,0.2l1.6,4.4c0.3,0.7,0.6,1.1,1.1,1.2c0.2,0,0.5,0,0.8-0.1
		c0.6-0.2,1.1-0.7,1.4-1.3c0.3-0.7,0.4-1.2,0.2-1.5l-1.8-5l1-0.4l2.6,7l-1,0.4l-0.6-1.6c0,0.5-0.2,0.9-0.5,1.5
		c-0.3,0.5-0.7,0.9-1.2,1.1c-0.5,0.2-1,0.3-1.3,0.3c-0.4,0-0.6,0-0.9-0.2c-0.3-0.2-0.6-0.5-0.8-1l-1.6-4.4c-0.1-0.3-0.2-0.5-0.4-0.6
		s-0.3-0.1-0.4-0.1l-0.2,0l-0.4,0.2l0-0.1L86.4,113.9z"/>
	<path d="M79.7,115.2l1.2-0.1l0.6,10.5l-1.2,0.1l-0.3-4.8l-4.9,0.3l0.3,4.8l-1.2,0.1l-0.6-10.5l1.2-0.1l0.3,5.5l4.9-0.3L79.7,115.2z
		"/>
	<path d="M66.6,114.6c0.7,0.1,1.1,0.3,1.3,0.6c0.2,0.2,0.3,0.5,0.3,0.6l0,0.3c0.6-0.8,1.4-1.1,2.5-1c1.2,0.2,1.9,0.8,1.9,2
		c0,0.1,0,0.2,0,0.4c0,0.1-0.1,0.3-0.1,0.4c-0.1,0.1-0.2,0.3-0.4,0.4c-0.4,0.3-1.3,0.4-2.6,0.3c-0.3,0-0.6,0-0.9-0.1
		c-0.3,0-0.5-0.1-0.7-0.1l-0.3,2.5c0,0,0,0.1,0,0.1c0,0.1,0,0.2,0,0.3s0.1,0.3,0.2,0.4c0.1,0.1,0.2,0.3,0.4,0.4
		c0.2,0.1,0.5,0.2,0.9,0.3c0.4,0.1,0.8,0,1.3,0c0.5-0.1,0.9-0.1,1.1-0.2l0,0.1c-0.9,0.3-1.9,0.4-2.8,0.2c-1-0.1-1.7-0.4-1.9-0.8
		c-0.2-0.3-0.3-0.6-0.3-1l0.7-5c0-0.3,0-0.5-0.1-0.7c-0.1-0.2-0.2-0.3-0.3-0.3l-0.2-0.1l-0.5-0.1l0-0.1L66.6,114.6z M70.4,115.2
		c-0.5-0.1-1,0-1.5,0.3c-0.5,0.3-0.7,0.6-0.8,1l-0.2,1.8c0.3,0.1,0.5,0.1,0.8,0.1c0.3,0,0.5,0.1,0.8,0.1c0.8,0,1.3-0.1,1.5-0.3
		c0.3-0.2,0.4-0.5,0.5-1c0-0.1,0-0.2,0-0.3C71.6,115.9,71.2,115.3,70.4,115.2z"/>
	<path d="M58.7,120l-0.1,0.1c0,0-0.1-0.1-0.1-0.2c0-0.1,0-0.2,0-0.3c0-0.1,0-0.2,0-0.2c0.1-0.3,0.2-0.5,0.4-0.7l4.5-4.9l0.1,0l0.5,8
		l-1-0.3l-0.4-6.6l-3.6,3.8c-0.2,0.2-0.3,0.4-0.4,0.7C58.6,119.6,58.6,119.8,58.7,120z"/>
	<path d="M54.6,109.9c0.6,0.3,1,0.6,1.1,1c0.1,0.3,0.1,0.5,0.1,0.7l-0.1,0.3c0.8-0.6,1.7-0.6,2.7-0.1c1.1,0.6,1.5,1.4,1.2,2.5
		c0,0.1-0.1,0.2-0.1,0.3c-0.1,0.1-0.1,0.2-0.2,0.3c-0.1,0.1-0.3,0.2-0.5,0.3c-0.5,0.2-1.3,0-2.5-0.5c-0.3-0.1-0.6-0.2-0.8-0.4
		c-0.2-0.1-0.5-0.2-0.6-0.4l-1.1,2.2c0,0,0,0.1-0.1,0.1c-0.1,0.1-0.1,0.2-0.1,0.3c0,0.1,0,0.3,0,0.5c0,0.2,0.1,0.3,0.3,0.5
		c0.2,0.2,0.4,0.4,0.7,0.5c0.3,0.2,0.7,0.3,1.3,0.4c0.5,0.1,0.9,0.1,1.1,0.1l0,0.1c-1,0-1.9-0.2-2.7-0.7c-0.9-0.5-1.4-0.9-1.6-1.4
		c-0.1-0.4-0.1-0.7,0.1-1l2.2-4.5c0.1-0.3,0.2-0.5,0.1-0.7c0-0.2-0.1-0.3-0.2-0.4l-0.1-0.1l-0.4-0.2l0.1-0.1L54.6,109.9z M58,111.7
		c-0.5-0.2-1-0.3-1.5-0.1c-0.5,0.1-0.9,0.4-1.1,0.6l-0.8,1.6c0.2,0.1,0.5,0.3,0.7,0.4c0.2,0.1,0.5,0.2,0.8,0.3
		c0.7,0.3,1.2,0.3,1.6,0.2c0.3-0.1,0.6-0.4,0.8-0.8c0-0.1,0.1-0.2,0.1-0.2C58.9,112.7,58.7,112,58,111.7z"/>
	<path d="M48.8,105.8c0.3,0.2,0.5,0.5,0.6,0.8c0.1,0.3,0,0.5,0,0.6l-0.1,0.2l-2.8,3.8c-0.5,0.6-0.6,1.2-0.4,1.6
		c0.1,0.2,0.3,0.4,0.5,0.6c0.5,0.4,1.1,0.5,1.8,0.4c0.7-0.1,1.2-0.3,1.4-0.6l3.2-4.3l0.8,0.6l-4.5,6l-0.8-0.6l1-1.4
		c-0.4,0.2-0.9,0.4-1.5,0.4c-0.6,0-1.1-0.1-1.6-0.4c-0.4-0.3-0.8-0.6-1-0.9c-0.2-0.3-0.3-0.6-0.3-0.8c0-0.4,0.1-0.8,0.4-1.2l2.8-3.8
		c0.2-0.2,0.3-0.4,0.3-0.6c0-0.2,0-0.3-0.1-0.4l-0.1-0.1l-0.4-0.3l0.1-0.1L48.8,105.8z"/>
	<path d="M43.6,100.5c0.5,0.5,0.7,0.9,0.7,1.3c0,0.3-0.1,0.5-0.2,0.6l-0.2,0.2c1-0.3,1.8,0,2.6,0.8c0.9,0.9,0.9,1.8,0.2,2.7
		c-0.1,0.1-0.2,0.2-0.2,0.3s-0.2,0.2-0.3,0.2c-0.1,0.1-0.3,0.1-0.6,0.1c-0.5,0-1.3-0.5-2.2-1.4c-0.2-0.2-0.5-0.4-0.6-0.6
		c-0.2-0.2-0.3-0.4-0.5-0.6l-1.8,1.7c0,0,0,0.1-0.1,0.1c-0.1,0-0.1,0.1-0.2,0.3c-0.1,0.1-0.1,0.3-0.1,0.4c0,0.2,0,0.3,0.1,0.6
		c0.1,0.2,0.3,0.5,0.5,0.8c0.3,0.3,0.6,0.5,1,0.8c0.4,0.3,0.8,0.4,1,0.5l0,0.1c-0.9-0.4-1.7-0.9-2.3-1.6c-0.7-0.8-1-1.4-1-1.9
		c0-0.4,0.2-0.7,0.4-0.9l3.7-3.4c0.2-0.2,0.3-0.4,0.4-0.6c0-0.2,0-0.3-0.1-0.4L43.6,100.5l-0.4-0.3l0.1-0.1L43.6,100.5z M46.2,103.4
		c-0.4-0.4-0.8-0.6-1.4-0.7c-0.6-0.1-1,0-1.2,0.2l-1.3,1.2c0.2,0.2,0.3,0.4,0.5,0.6c0.2,0.2,0.4,0.4,0.6,0.6c0.6,0.5,1,0.7,1.4,0.7
		c0.3,0,0.7-0.2,1-0.5c0.1-0.1,0.1-0.1,0.2-0.2C46.7,104.6,46.8,103.9,46.2,103.4z"/>
	<path d="M38.2,91.3c0.8,1.7,0.9,3.2,0.4,4.4c-0.2,0.5-0.5,0.9-1,1.4c-0.5,0.5-1.1,0.9-1.9,1.3C34.8,98.8,34,99,33.2,99
		c-0.8,0-1.4-0.1-2-0.4c-1.1-0.6-1.9-1.5-2.5-2.7c-0.2-0.4-0.3-0.7-0.4-1.1c-0.1-0.4-0.2-0.7-0.2-0.9l0-0.3l0.2,0
		c0.1,0.7,0.3,1.5,0.6,2.2c0.5,1,1.2,1.6,2.1,1.9c0.7,0.3,1.5,0.3,2.5,0c0.6-0.1,1.2-0.4,1.9-0.7c0.7-0.4,1.4-0.8,1.9-1.3
		c0.5-0.5,0.9-1,1-1.4s0.2-0.8,0.2-1.3c0-0.5-0.1-0.8-0.1-1.1c-0.1-0.2-0.2-0.5-0.4-0.8c-0.2-0.3-0.4-0.7-0.6-1
		c-0.3-0.4-0.5-0.7-0.6-0.8l-0.2-0.3l0.1-0.1C37.2,89.6,37.7,90.4,38.2,91.3z"/>
	<path d="M34.8,87.6c0.8-0.2,1.2-0.5,1.3-1c0-0.2,0-0.5,0-0.8c-0.2-0.6-0.5-1.1-1.1-1.5c-0.6-0.4-1.1-0.5-1.5-0.4l-5.2,1.3l-0.3-1
		l6.2-1.6c0.3-0.1,0.5-0.2,0.6-0.3C35,82.2,35,82.1,35,82l0-0.2l-0.1-0.4l0.1,0l0.2,0.9c0.1,0.4,0.1,0.7,0,1
		c-0.1,0.3-0.3,0.4-0.4,0.5l-0.2,0.1l-0.6,0.2c0.5,0.1,0.9,0.3,1.4,0.6c0.5,0.4,0.8,0.8,0.9,1.3c0.1,0.5,0.2,1,0.2,1.3
		c0,0.4-0.1,0.6-0.2,0.8c-0.2,0.3-0.6,0.6-1.1,0.7l-5.6,1.4l-0.3-1L34.8,87.6z"/>
	<path d="M23.8,81.8l-0.1-1l5.6-0.4c-0.5-0.1-0.9-0.4-1.4-0.9c-0.4-0.4-0.7-0.9-0.7-1.5c-0.1-2,1-3.1,3.4-3.3c2.7-0.2,4.1,1,4.3,3.6
		c0.1,0.8,0,1.7-0.2,2.7L23.8,81.8z M27.4,78c0,0.6,0.3,1.2,0.9,1.6c0.6,0.5,1.1,0.7,1.5,0.7l4.8-0.3c0.2-0.6,0.3-1.2,0.2-1.6
		c-0.1-1.9-1.5-2.8-4.1-2.6C28.4,75.9,27.3,76.6,27.4,78z"/>
	<path d="M35.3,67.5c-0.1,0.7-0.3,1.1-0.5,1.3c-0.2,0.2-0.4,0.3-0.6,0.3l-0.3,0c0.8,0.6,1.2,1.4,1.1,2.5c-0.1,1.3-0.8,1.9-1.9,1.9
		c-0.1,0-0.2,0-0.4,0c-0.1,0-0.3,0-0.4-0.1c-0.1-0.1-0.3-0.2-0.5-0.4c-0.3-0.4-0.4-1.3-0.4-2.6c0-0.3,0-0.6,0.1-0.9
		c0-0.3,0.1-0.5,0.1-0.7L29,68.6c0,0-0.1,0-0.1,0c-0.1,0-0.2,0-0.3,0c-0.1,0-0.3,0.1-0.4,0.2c-0.1,0.1-0.3,0.2-0.4,0.4
		c-0.1,0.2-0.2,0.5-0.2,0.9c0,0.4,0,0.8,0.1,1.3c0.1,0.5,0.2,0.9,0.3,1.1l-0.1,0c-0.3-0.9-0.4-1.9-0.3-2.8c0.1-1,0.4-1.7,0.8-2
		c0.3-0.2,0.6-0.3,1-0.3l5,0.6c0.3,0,0.5,0,0.7-0.1c0.2-0.1,0.3-0.2,0.3-0.3l0-0.2l0.1-0.5l0.1,0L35.3,67.5z M34.8,71.3
		c0.1-0.5-0.1-1-0.4-1.5c-0.3-0.5-0.6-0.7-1-0.8l-1.8-0.2c-0.1,0.3-0.1,0.5-0.1,0.8c0,0.3,0,0.5,0,0.8c0,0.8,0.1,1.3,0.3,1.5
		c0.2,0.3,0.6,0.4,1,0.5c0.1,0,0.2,0,0.3,0C34.1,72.5,34.7,72.1,34.8,71.3z"/>
</g>
<circle cx="75.1" cy="75" r="3.4"/>
</svg>
